<svg xmlns="http://www.w3.org/2000/svg" xmlns:xlink="http://www.w3.org/1999/xlink" width="96.438" height="93.788" viewBox="0 0 96.438 93.788">
  <defs>
    <filter id="Path_6" x="20.948" y="56.588" width="54.928" height="25.024" filterUnits="userSpaceOnUse">
      <feOffset dy="1" input="SourceAlpha"/>
      <feGaussianBlur stdDeviation="2.5" result="blur"/>
      <feFlood flood-opacity="0.161"/>
      <feComposite operator="in" in2="blur"/>
      <feComposite in="SourceGraphic"/>
    </filter>
    <filter id="Path_5" x="0" y="77.612" width="96.438" height="16.176" filterUnits="userSpaceOnUse">
      <feOffset dy="1" input="SourceAlpha"/>
      <feGaussianBlur stdDeviation="0.5" result="blur-2"/>
      <feFlood flood-opacity="0.161"/>
      <feComposite operator="in" in2="blur-2"/>
      <feComposite in="SourceGraphic"/>
    </filter>
  </defs>
  <g id="ionic-logo-white" transform="translate(-1126.522 -283.454)">
    <g id="Group_24" data-name="Group 24" transform="translate(1147.461 283.343)">
      <ellipse id="Ellipse_3" data-name="Ellipse 3" cx="28" cy="27.5" rx="28" ry="27.5" transform="translate(-0.961 0.111)" fill="#fff"/>
      <ellipse id="Ellipse_2" data-name="Ellipse 2" cx="8" cy="8.5" rx="8" ry="8.5" transform="translate(19.039 19.111)" fill="#79d2c0"/>
      <circle id="Ellipse_4" data-name="Ellipse 4" cx="2.5" cy="2.5" r="2.5" transform="translate(25.039 25.111)" fill="#292b49"/>
      <path id="Path_1" data-name="Path 1" d="M3114.977-804.643l.269,20.015h20" transform="translate(-3088.269 812.294)" fill="none" stroke="#292b49" stroke-linecap="round" stroke-linejoin="round" stroke-width="1.5"/>
    </g>
    <g id="Group_25" data-name="Group 25" transform="translate(1132.784 342.108)">
      <g transform="matrix(1, 0, 0, 1, -6.26, -58.65)" filter="url(#Path_6)">
        <path id="Path_6-2" data-name="Path 6" d="M1.47,0h1.4V-9.8H1.47Zm8.764.112A4.965,4.965,0,0,0,15.428-4.9a4.965,4.965,0,0,0-5.194-5.012A4.981,4.981,0,0,0,5.012-4.9,4.981,4.981,0,0,0,10.234.112Zm0-1.246A3.686,3.686,0,0,1,6.412-4.9a3.686,3.686,0,0,1,3.822-3.766A3.679,3.679,0,0,1,14.028-4.9,3.679,3.679,0,0,1,10.234-1.134ZM24.6-9.8v7.308L18.718-9.8H17.57V0h1.4V-7.308L24.85,0H26V-9.8ZM28.938,0h1.4V-9.8h-1.4ZM37.66.112A4.863,4.863,0,0,0,41.4-1.428l-.91-.882A3.644,3.644,0,0,1,37.73-1.134,3.7,3.7,0,0,1,33.88-4.9a3.7,3.7,0,0,1,3.85-3.766A3.631,3.631,0,0,1,40.488-7.5l.91-.882a4.843,4.843,0,0,0-3.724-1.526A4.957,4.957,0,0,0,32.48-4.9,4.953,4.953,0,0,0,37.66.112Z" transform="translate(26.98 73)" fill="#fff"/>
      </g>
      <g transform="matrix(1, 0, 0, 1, -6.26, -58.65)" filter="url(#Path_5)">
        <path id="Path_5-2" data-name="Path 5" d="M7.542.288a6.807,6.807,0,0,0,5.652-2.52L10.512-4.626A3.4,3.4,0,0,1,7.758-3.15,2.872,2.872,0,0,1,4.806-6.3,2.872,2.872,0,0,1,7.758-9.45a3.4,3.4,0,0,1,2.754,1.476l2.682-2.394a6.807,6.807,0,0,0-5.652-2.52c-4.05,0-7.02,2.718-7.02,6.588S3.492.288,7.542.288Zm13.212,0c4.1,0,7.11-2.772,7.11-6.588s-3.006-6.588-7.11-6.588-7.11,2.772-7.11,6.588S16.65.288,20.754.288Zm0-3.438A2.867,2.867,0,0,1,17.928-6.3a2.867,2.867,0,0,1,2.826-3.15A2.867,2.867,0,0,1,23.58-6.3,2.867,2.867,0,0,1,20.754-3.15ZM35.442.288c3.87,0,6.138-2.178,6.138-5.958V-12.6H37.4v6.8c0,1.926-.738,2.646-1.926,2.646S33.552-3.87,33.552-5.8v-6.8H29.3v6.93C29.3-1.89,31.572.288,35.442.288ZM51.8-12.6v5.724L47.016-12.6H43.524V0h4.14V-5.724L52.452,0h3.492V-12.6ZM60.732,0H64.98V-9.306h3.69V-12.6H57.042v3.294h3.69ZM73.944-3.2V-4.86h5.328V-7.92H73.944V-9.4H80.01v-3.2H69.768V0H80.244V-3.2ZM89.424,0H93.96L91.314-3.888a4.22,4.22,0,0,0,2.376-3.96c0-2.916-2.232-4.752-5.742-4.752H81.882V0H86.13V-3.168h1.152Zm-.018-7.848c0,.918-.558,1.476-1.728,1.476H86.13V-9.324h1.548C88.848-9.324,89.406-8.766,89.406-7.848Z" transform="translate(0.98 91)" fill="#fff"/>
      </g>
    </g>
  </g>
</svg>
