<svg xmlns="http://www.w3.org/2000/svg" width="324.04" height="123" viewBox="0 0 324.04 123">
  <g id="counter-login" transform="translate(-1115 -276)">
    <g id="Group_24" data-name="Group 24" transform="translate(-485.6 -10.6)">
      <circle id="Ellipse_3" data-name="Ellipse 3" cx="61.5" cy="61.5" r="61.5" transform="translate(1600.6 286.6)" fill="#41d6b9"/>
      <circle id="Ellipse_2" data-name="Ellipse 2" cx="18.5" cy="18.5" r="18.5" transform="translate(1643.6 329.6)" fill="#34bba0"/>
      <circle id="Ellipse_4" data-name="Ellipse 4" cx="6.5" cy="6.5" r="6.5" transform="translate(1655.6 341.6)" fill="#292b49"/>
      <path id="Path_1" data-name="Path 1" d="M3114.977-804.643l.6,44.754H3160.3" transform="translate(-1454.396 1108.112)" fill="none" stroke="#292b49" stroke-linecap="round" stroke-linejoin="round" stroke-width="5"/>
    </g>
    <g id="Group_25" data-name="Group 25" transform="translate(0 3)">
      <path id="Path_4" data-name="Path 4" d="M2.625,0h2.5V-17.5h-2.5Zm15.65.2C23.6.2,27.55-3.6,27.55-8.75S23.6-17.7,18.275-17.7C12.9-17.7,8.95-13.875,8.95-8.75S12.9.2,18.275.2Zm0-2.225A6.583,6.583,0,0,1,11.45-8.75a6.583,6.583,0,0,1,6.825-6.725A6.57,6.57,0,0,1,25.05-8.75,6.57,6.57,0,0,1,18.275-2.025ZM43.925-17.5V-4.45L33.425-17.5h-2.05V0h2.5V-13.05L44.375,0h2.05V-17.5ZM51.675,0h2.5V-17.5h-2.5ZM67.25.2a8.683,8.683,0,0,0,6.675-2.75L72.3-4.125a6.507,6.507,0,0,1-4.925,2.1A6.61,6.61,0,0,1,60.5-8.75a6.61,6.61,0,0,1,6.875-6.725A6.484,6.484,0,0,1,72.3-13.4l1.625-1.575a8.648,8.648,0,0,0-6.65-2.725C61.95-17.7,58-13.925,58-8.75S61.95.2,67.25.2Z" transform="translate(1272 316)" fill="#292b49"/>
      <path id="Path_2" data-name="Path 2" d="M9.6,0H1.76V-13.98h2V-1.76H9.6ZM28.3,0,26.82-3.54H19.66L18.18,0H16.24l5.98-13.98h2.12L30.22,0ZM20.28-5.22h5.88l-2.94-6.86ZM48.08,0H45.92L43.86-4.88l-.09-.2a2.155,2.155,0,0,0-.28-.44A2.3,2.3,0,0,0,43-5.97a1.224,1.224,0,0,0-.72-.21H40.12V0h-2V-13.98h3.66q.84,0,1.76.06a4.547,4.547,0,0,1,1.69.43,3.11,3.11,0,0,1,1.28,1.17,4.2,4.2,0,0,1,.51,2.26,2.6,2.6,0,0,1-.46,1.62,3.572,3.572,0,0,1-1,.92A5.13,5.13,0,0,1,44.1-7a3.917,3.917,0,0,1,.92.33,1.834,1.834,0,0,1,.78.89ZM41.9-7.96q.56,0,1.09-.03a2.439,2.439,0,0,0,.94-.23,1.537,1.537,0,0,0,.66-.63,2.425,2.425,0,0,0,.25-1.21,2.534,2.534,0,0,0-.25-1.24,1.5,1.5,0,0,0-.68-.64,2.713,2.713,0,0,0-1.01-.23q-.58-.03-1.22-.03H40.12v4.24ZM66.98,0,65.5-3.54H58.34L56.86,0H54.92L60.9-13.98h2.12L68.9,0ZM58.96-5.22h5.88L61.9-12.08Zm26.46-8.76h2.14L82.26,0H79.72L74.46-13.98h2.12L81-1.8ZM97.56-6.34v4.58h5.84V0H95.56V-13.98h7.82l-.3,1.78H97.56v4.08h5.3v1.78ZM120.42,0h-7.84V-13.98h2V-1.76h5.84Z" transform="translate(1274 372)" fill="#c9c9c9"/>
      <path id="Path_3" data-name="Path 3" d="M13.408.512c4.384,0,7.84-1.6,10.048-4.48L18.688-8.224a6.051,6.051,0,0,1-4.9,2.624c-3.136,0-5.248-2.176-5.248-5.6s2.112-5.6,5.248-5.6a6.051,6.051,0,0,1,4.9,2.624l4.768-4.256c-2.208-2.88-5.664-4.48-10.048-4.48C6.208-22.912.928-18.08.928-11.2S6.208.512,13.408.512ZM36.9.512c7.3,0,12.64-4.928,12.64-11.712S44.192-22.912,36.9-22.912,24.256-17.984,24.256-11.2,29.6.512,36.9.512Zm0-6.112c-2.784,0-5.024-2.112-5.024-5.6s2.24-5.6,5.024-5.6,5.024,2.112,5.024,5.6S39.68-5.6,36.9-5.6ZM63.008.512C69.888.512,73.92-3.36,73.92-10.08V-22.4H66.5v12.1c0,3.424-1.312,4.7-3.424,4.7s-3.424-1.28-3.424-4.7V-22.4H52.1v12.32C52.1-3.36,56.128.512,63.008.512ZM92.1-22.4v10.176L83.584-22.4H77.376V0h7.36V-10.176L93.248,0h6.208V-22.4ZM107.968,0h7.552V-16.544h6.56V-22.4H101.408v5.856h6.56Zm23.488-5.7V-8.64h9.472v-5.44h-9.472V-16.7H142.24v-5.7H124.032V0h18.624V-5.7ZM158.976,0h8.064l-4.7-6.912a7.5,7.5,0,0,0,4.224-7.04c0-5.184-3.968-8.448-10.208-8.448H145.568V0h7.552V-5.632h2.048Zm-.032-13.952c0,1.632-.992,2.624-3.072,2.624H153.12v-5.248h2.752C157.952-16.576,158.944-15.584,158.944-13.952Z" transform="translate(1272 349)" fill="#292b49"/>
    </g>
  </g>
</svg>
