<?xml version="1.0" encoding="utf-8"?>
<!-- Generator: Adobe Illustrator 25.2.3, SVG Export Plug-In . SVG Version: 6.00 Build 0)  -->
<svg version="1.1" xmlns="http://www.w3.org/2000/svg" xmlns:xlink="http://www.w3.org/1999/xlink" x="0px" y="0px"
	 viewBox="0 0 750 500" style="enable-background:new 0 0 750 500;" xml:space="preserve">
<style type="text/css">
	.st0{display:none;}
	.st1{display:inline;fill:#FFF6D9;}
	.st2{fill:none;stroke:#3E1A52;stroke-width:2.5;stroke-linecap:round;stroke-miterlimit:10;}
	.st3{fill:#3E1A52;}
	.st4{fill:none;stroke:#F74364;stroke-width:3.5;stroke-linecap:round;stroke-miterlimit:10;}
	.st5{fill:none;stroke:#FFC300;stroke-width:3.5;stroke-linecap:round;stroke-miterlimit:10;}
	.st6{fill:#FFC300;}
	.st7{fill:#F74364;}
	.st8{fill:none;stroke:#FFC300;stroke-width:2.5;stroke-linecap:round;stroke-miterlimit:10;}
	.st9{fill:none;stroke:#3E1A52;stroke-width:2.5;stroke-miterlimit:10;}
	.st10{fill:#FFFFFF;}
	.st11{font-family:'SinkinSans-600SemiBoldItalic';}
	.st12{font-size:52.5319px;}
	.st13{letter-spacing:2;}
	.st14{font-family:'SinkinSans-800BlackItalic';}
	.st15{font-size:67.5116px;}
	.st16{fill:#FFF6D9;}
	.st17{fill:none;stroke:#3E1A52;stroke-width:3.3;stroke-miterlimit:10;}
	.st18{fill:#FFFFFF;stroke:#3E1A52;stroke-width:2.5;stroke-miterlimit:10;}
</style>
<g id="BACKGROUND" class="st0">
	<rect class="st1" width="750" height="500"/>
</g>
<g id="OBJECTS">
	<g>
		<line class="st2" x1="636.9" y1="157.29" x2="654.16" y2="152.25"/>
		<line class="st2" x1="624.96" y1="122.12" x2="619.1" y2="138.49"/>
		<line class="st2" x1="630.72" y1="145.29" x2="650.22" y2="123.94"/>
	</g>
	<g>
		<polygon class="st3" points="407.35,391.32 385.43,378.66 385.43,403.98 		"/>
		<polygon class="st3" points="436.94,391.32 415.02,378.66 415.02,403.98 		"/>
	</g>
	<g>
		<polygon class="st3" points="215.84,60.35 193.92,47.7 193.92,73.01 		"/>
		<polygon class="st3" points="245.43,60.35 223.51,47.7 223.51,73.01 		"/>
	</g>
	<g>
		<line class="st2" x1="300.68" y1="119.19" x2="319.44" y2="119.19"/>
		<line class="st2" x1="310.06" y1="128.57" x2="310.06" y2="109.82"/>
	</g>
	<g>
		<line class="st2" x1="627.58" y1="257.23" x2="653.9" y2="257.23"/>
		<line class="st2" x1="640.74" y1="270.39" x2="640.74" y2="244.07"/>
	</g>
	<g>
		<line class="st2" x1="85.68" y1="343.61" x2="113.98" y2="343.61"/>
		<line class="st2" x1="99.83" y1="357.76" x2="99.83" y2="329.45"/>
	</g>
	<line class="st4" x1="172.09" y1="94.41" x2="254.25" y2="94.41"/>
	<line class="st4" x1="277.85" y1="392.13" x2="360" y2="392.13"/>
	<line class="st2" x1="45.1" y1="130.77" x2="190.71" y2="130.77"/>
	<g>
		<line class="st5" x1="99.72" y1="212.08" x2="192.28" y2="212.08"/>
		<line class="st2" x1="124" y1="201.25" x2="168.55" y2="201.25"/>
		<line class="st2" x1="546.34" y1="275.73" x2="582.9" y2="275.73"/>
		<path class="st6" d="M520.93,239.78l38.48-88.94c0-0.4,0-0.61,0-0.58H208.24l-38.73,89.51H520.93z"/>
		<path class="st7" d="M538.33,287.41c-2.72-2.15-5.02-4.83-6.58-7.93c-1.5-2.99-2.28-6.27-2.49-9.6
			c-0.32-5.22,0.62-10.45,2.18-15.47H203.37l-38.73,105.01h347.42l28.63-70.32C539.89,288.57,539.09,288.01,538.33,287.41z"/>
		<line class="st8" x1="143.8" y1="176.31" x2="212.43" y2="176.31"/>
		<path class="st9" d="M539.62,156.87c0-0.4,0-0.61,0-0.58H188.45l-38.73,89.51h38.73l-38.73,105.01h351.42l38.48-104.33
			c0-0.23,0-0.45,0-0.68"/>
		<g>
			<g>
				<text transform="matrix(1 0 0 1 214.1033 222.3896)" class="st10 st11 st12 st13">COMING</text>
			</g>
			<g>
				<text transform="matrix(1 0 0 1 209.1033 222.3896)" class="st3 st11 st12 st13">COMING</text>
			</g>
		</g>
		<g>
			<g>
				<text transform="matrix(1 0 0 1 209.4349 326.4338)" class="st3 st14 st15">SOON</text>
			</g>
			<g>
				<text transform="matrix(1 0 0 1 202.4349 326.4338)" class="st10 st14 st15">SOON</text>
			</g>
		</g>
		<line class="st4" x1="543.45" y1="303.83" x2="616.25" y2="303.83"/>
		<line class="st4" x1="537.93" y1="333.6" x2="677.29" y2="333.6"/>
		<line class="st5" x1="387.63" y1="137.68" x2="461.47" y2="137.68"/>
	</g>
	<g>
		<path class="st10" d="M559.54,368.42c0,0,16.26-33.04,10.22-61.03c-4.78-22.16-37.33-34.68-35.52-46.59
			c1.97-12.98,41.61-17.55,51.18-34.15c8.23-14.27,8.18-54.94,8.18-54.94l-94.52-15.42c0,0-12.98,38.54-9.71,54.69
			c3.8,18.79,39.93,35.71,37.68,48.64c-2.07,11.86-36.91,13.39-48.49,32.88c-14.62,24.62-9.71,61.11-9.71,61.11L559.54,368.42z"/>
		<path class="st6" d="M546.31,173.7c0,0,24.93,16.48,32.97,46.15c9.07-15.66,6.18-39.77,6.18-39.77L546.31,173.7z"/>
		<path class="st16" d="M566.44,369.36l-31.5-5.14l-41.43-6.76l-31.5-5.14c-7.67-1.25-14.91,3.95-16.16,11.63l-0.98,6.04l45.39,7.41
			l41.43,6.76l45.39,7.4l0.98-6.04C579.32,377.85,574.11,370.61,566.44,369.36z"/>
		<path class="st7" d="M576.28,153.42l-41.43-6.76l-45.39-7.4l-0.98,6.04c-1.25,7.67,3.95,14.91,11.63,16.16l31.5,5.14l41.43,6.76
			l31.5,5.14c7.67,1.25,14.91-3.95,16.16-11.63l0.98-6.04L576.28,153.42z"/>
		<path class="st7" d="M572.42,375.33l-31.5-5.14l-41.43-6.76L468,358.3c-7.67-1.25-14.91,3.95-16.16,11.63l-0.98,6.04l45.39,7.4
			l41.43,6.76l45.39,7.41l0.98-6.04C585.3,383.82,580.09,376.59,572.42,375.33z"/>
		<path class="st9" d="M570.31,147.45l-41.43-6.76l-45.39-7.4l-0.98,6.04c-1.25,7.67,3.95,14.91,11.63,16.16l31.5,5.14l41.43,6.76
			l31.5,5.14c7.67,1.25,14.91-3.95,16.16-11.63l0.98-6.04L570.31,147.45z"/>
		<path class="st9" d="M566.44,369.36l-31.5-5.14l-41.43-6.76l-31.5-5.14c-7.67-1.25-14.91,3.95-16.16,11.63l-0.98,6.04l45.39,7.41
			l41.43,6.76l45.39,7.4l0.98-6.04C579.32,377.85,574.11,370.61,566.44,369.36z"/>
		<g>
			<path class="st17" d="M499.08,156.29c0,0-12.98,38.54-9.71,54.69c3.8,18.79,39.93,35.71,37.68,48.64
				c-2.07,11.86-36.91,13.39-48.49,32.88c-14.62,24.62-9.71,61.11-9.71,61.11"/>
			<path class="st17" d="M593.6,171.71c0,0,0.05,40.67-8.18,54.94c-9.58,16.6-49.21,21.17-51.18,34.15
				c-1.81,11.9,30.74,24.43,35.52,46.59c6.04,27.99-10.22,61.03-10.22,61.03"/>
		</g>
		<path class="st3" d="M497.22,209.47c-0.49,0.25-0.65,0.87-0.36,1.33c1.57,2.46,6.51,9.9,13.32,17.15
			c7.76,8.27,17.79,16.02,23.34,16.92c14.95,2.44,44.75-19.85,45.26-21.74c-20.25,5.94-27.31,3.79-46.04-12.89
			C519.89,198.8,501.45,207.27,497.22,209.47z"/>
		<path class="st3" d="M555.11,362.71c-1.34-13.07-7.38-52.1-31.83-56.09c-24.21-3.95-42.54,30.66-48.27,43.02L555.11,362.71z"/>
		<path class="st3" d="M540.19,300.72c-0.43,2.65-2.93,4.44-5.57,4.01c-2.65-0.43-4.44-2.93-4.01-5.57
			c0.43-2.65,2.93-4.44,5.57-4.01C538.82,295.58,540.62,298.08,540.19,300.72z"/>
		<path class="st3" d="M521.15,289.55c-0.33,2.01-2.22,3.38-4.24,3.05c-2.01-0.33-3.38-2.22-3.05-4.24
			c0.33-2.01,2.22-3.38,4.24-3.05C520.12,285.64,521.48,287.54,521.15,289.55z"/>
		<path class="st3" d="M532.95,276.33c-0.26,1.59-1.76,2.66-3.34,2.41c-1.59-0.26-2.66-1.76-2.41-3.34
			c0.26-1.59,1.76-2.66,3.34-2.41C532.13,273.24,533.21,274.74,532.95,276.33z"/>
		<path class="st6" d="M542.88,284.41c0,0,15.52,7.28,20.33,24.31c4.01,14.22,0.41,24.59,0.41,24.59s-4.42-18.17-6.59-23.76
			C551.25,294.72,542.88,284.41,542.88,284.41z"/>
	</g>
	<line class="st5" x1="40.15" y1="404.61" x2="141.03" y2="404.61"/>
	<line class="st2" x1="473.45" y1="448.08" x2="661.7" y2="448.08"/>
	<path class="st18" d="M189.34,389.48c-0.24,2.29-2.28,3.95-4.57,3.71c-2.29-0.24-3.95-2.28-3.71-4.57
		c0.24-2.29,2.28-3.95,4.57-3.71C187.92,385.15,189.58,387.2,189.34,389.48z"/>
	
		<ellipse transform="matrix(0.9971 -0.0762 0.0762 0.9971 -4.2523 10.8259)" class="st18" cx="139.67" cy="61.11" rx="4.16" ry="4.16"/>
	
		<ellipse transform="matrix(0.9832 -0.1827 0.1827 0.9832 -62.0304 127.0464)" class="st18" cx="658.57" cy="400.21" rx="4.16" ry="4.16"/>
	<path class="st18" d="M552.78,90.16c0,2.3-1.86,4.16-4.16,4.16c-2.3,0-4.16-1.86-4.16-4.16s1.86-4.16,4.16-4.16
		C550.92,86,552.78,87.86,552.78,90.16z"/>
	<path class="st18" d="M210.43,439.95c-0.34,3.3-3.29,5.69-6.59,5.35c-3.3-0.34-5.69-3.29-5.35-6.59c0.34-3.3,3.29-5.69,6.59-5.35
		S210.77,436.66,210.43,439.95z"/>
	<path class="st6" d="M153.74,281.95c0,2.97-2.41,5.38-5.38,5.38c-2.97,0-5.38-2.41-5.38-5.38c0-2.97,2.41-5.38,5.38-5.38
		C151.33,276.57,153.74,278.98,153.74,281.95z"/>
	<circle class="st7" cx="630.5" cy="363.88" r="6.13"/>
	
		<ellipse transform="matrix(0.229 -0.9734 0.9734 0.229 283.8379 572.1559)" class="st18" cx="503.1" cy="106.9" rx="7.85" ry="7.85"/>
	<path class="st18" d="M149.84,430.99c-0.3,2.86-2.85,4.93-5.71,4.64c-2.86-0.3-4.93-2.85-4.64-5.71c0.3-2.86,2.85-4.93,5.71-4.64
		S150.13,428.14,149.84,430.99z"/>
	
		<rect x="112.35" y="159.04" transform="matrix(0.7071 0.7071 -0.7071 0.7071 149.6553 -34.6371)" class="st7" width="8.58" height="8.58"/>
	<rect x="61.5" y="268.54" transform="matrix(0.7071 0.7071 -0.7071 0.7071 210.8952 33.9212)" class="st7" width="6" height="6"/>
	
		<rect x="240.53" y="412.19" transform="matrix(0.7071 0.7071 -0.7071 0.7071 364.9147 -50.5961)" class="st6" width="6" height="6"/>
	<rect x="670.98" y="211.33" transform="matrix(0.7071 0.7071 -0.7071 0.7071 348.9581 -413.8)" class="st7" width="6" height="6"/>
	
		<rect x="602.55" y="410.49" transform="matrix(0.7071 0.7071 -0.7071 0.7071 471.0332 -307.6165)" class="st6" width="8.58" height="8.58"/>
	
		<rect x="555.11" y="119.94" transform="matrix(0.7071 0.7071 -0.7071 0.7071 251.6852 -359.1677)" class="st6" width="8.58" height="8.58"/>
</g>
</svg>
