<?xml version="1.0" encoding="utf-8"?>
<!-- Generator: Adobe Illustrator 25.2.3, SVG Export Plug-In . SVG Version: 6.00 Build 0)  -->
<svg version="1.1" id="Capa_1" xmlns="http://www.w3.org/2000/svg" xmlns:xlink="http://www.w3.org/1999/xlink" x="0px" y="0px"
	 viewBox="0 0 512 512" style="enable-background:new 0 0 512 512;" xml:space="preserve">
<style type="text/css">
	.st0{fill:#12485B;}
	.st1{fill:#043246;}
</style>
<g>
	<g>
		<path class="st0" d="M42.4,302.2c14.5-1.9,29.6-3.7,43.4,1.3c9.2,3.3,18.1,9.7,27.7,7.9c9.6-1.8,16-11.8,23.3-18.9
			c7.2-7.1,20.8-11.2,26.4-2.8c2,4,2.7,8.6,2,13l-6.1,94.3c7.1-8,14.7-16.2,24.8-19.6c10.1-3.4,23.5,0.2,26.9,10.3
			c1.3,6,1.3,12.2,0.1,18.2c-1.3,6.1,0.7,12.4,5.2,16.6c4.9,3.4,11.8,1.8,17.5,3.9c9.9,3.7,12.4,16.6,12.9,27
			c0.4,10.4,1.5,23.1,10.6,28.5c9.1-5.6,10-17.9,10.4-28.5c0.4-10.6,2.7-23.3,12.6-27.1c5.5-2.1,12.5-0.6,17.4-4.1
			c4.5-4.3,6.4-10.6,5-16.7c-1.3-6-1.3-12.2-0.1-18.2c3.4-10.1,16.6-13.8,26.8-10.5c10.3,3.3,17.8,11.5,25,19.4l-6.9-94.2
			c-0.9-4.3-0.4-8.9,1.4-12.9c5.5-8.6,19.2-4.5,26.5,2.6c7.2,7.1,13.4,16.6,23.4,18.7c10,2.1,18.5-4.7,27.7-8.1
			c13.7-5.1,28.9-3.4,43.4-1.7l42.3,5.1c-14.9-4.3-22.3-21-25.4-36.3s-3.5-31.8-12.2-44.6c-6.9-10.2-18.5-17.5-21.6-29.4
			c-1.8-9.2,0.6-18.7,6.5-26c6-7.1,12.9-13.3,20.7-18.4c-12.7,3.8-26.3-0.5-38.8-4.8l-46.4-15.8c-6.4-1.7-12.4-4.7-17.6-8.7
			c-10.8-9.7-10.6-27.7-3.5-40.2c7.1-12.5,19.4-21.5,31.3-29.8l-100.9,9.6c-9.6,0.9-19.9,2-27.7,8c-14.5,11.1-13.1,33-15.7,51.2
			l-11,0c-2.7-18.2-1.5-39.9-16.1-51c-7.7-5.9-18-6.9-27.7-7.8l-101-8.8c12,8.2,24.3,16.9,31.5,29.6c7.2,12.7,7.5,30.4-3.2,40.2
			c-5.1,4-11,7-17.3,8.8l-46.3,16.2c-12.5,4.4-26.1,8.8-38.8,5.1c7.8,5,14.8,11.2,20.8,18.2c6,7.2,8.4,16.8,6.7,26
			c-3.1,11.9-14.6,19.3-21.4,29.5c-8.7,13-9,29.4-11.9,44.7c-2.8,15.3-10.2,32-25.1,36.5L42.4,302.2z"/>
		<path class="st1" d="M70.1,184.8c47.6-5.7,95.8,2.6,138.7,24.1c-4.2,2.9-8.6,5.5-13.3,7.6c-15.8,6.2-32.3,10.5-49.2,12.8
			c-8.5,1.5-16.9,3.5-25.1,5.9c-8.3,2.3-16.2,5.8-23.5,10.4c7.4-4.3,15.4-7.5,23.7-9.5c8.3-2,16.7-3.5,25.2-4.6
			c17.3-1.4,34.3-4.9,50.8-10.5c22.6-9.2,41-26.3,51.8-48.2l2.8,94.2c-0.7,3.1-1.6,6.1-2.7,9c-3,7.6-6.9,14.9-11.7,21.5
			c-24.3-3-48.9,1.6-70.5,13.3c21.2-10,44.8-13.5,68-9.9l-0.4,0.6c-12.8,15.4-27.2,29.5-42.9,42c16.4-11.7,31.6-25.1,45.3-40
			c6.1-6.9,11.2-14.7,15.3-23l4.1,137.2l3.7-165.3c5.1,5,10.5,9.5,15.9,14l1.3,1.1c4.9,4,9.9,7.9,14.6,12.1l-0.3,0l14.5,66.7
			l-10.2-63l1.6,1.5c7.1,6.8,12.9,14.8,17.1,23.7c4.4,8.9,5.7,19.1,3.6,28.9c2.6-9.8,1.8-20.2-2.2-29.5c-3.9-9.4-9.4-17.9-16.3-25.3
			c-5.1-5.5-10.7-10.7-16.4-15.8l42.8-5.3l-45.1,3.2c-7.4-6.4-14.3-13.4-20.6-20.8l2-90.4c1.1,2,2.3,4.1,3.5,6
			c3,4.5,6.2,8.8,9.6,12.9c14.1,16.3,31.4,29.6,50.8,39c5.6,2.9,11.1,5.5,16.7,7.9c8.2,13.7,20,24.9,34.1,32.4
			c-12.6-7.5-23.1-18.1-30.4-30.8c32,13.3,65.6,21.5,97.2,35.4c-36.7-18.5-77.1-29.4-112.4-49.4c34.5-3.3,69.3-3.1,103.8,0.5
			c-36.9-5.8-74.2-7.7-111.5-5.6l0,0.5c-15.6-9.3-29.3-21.4-40.4-35.8c-12.2-15.5-19.2-34.5-20-54.2l1.8-82.6l-20.3,0.1l3.3,109.1
			c-1.8,25-13.7,48.3-33,64.3C169.8,182.9,119.3,176.4,70.1,184.8L70.1,184.8z"/>
	</g>
</g>
</svg>
