<svg xmlns="http://www.w3.org/2000/svg" xmlns:xlink="http://www.w3.org/1999/xlink" width="301.2" height="207.357" viewBox="0 0 301.2 207.357">
  <defs>
    <linearGradient id="linear-gradient" x1="-1.885" y1="0.5" x2="13.841" y2="0.5" gradientUnits="objectBoundingBox">
      <stop offset="0" stop-color="#6cdeb5"/>
      <stop offset="0.158" stop-color="#65d9b3"/>
      <stop offset="0.38" stop-color="#53cbaf"/>
      <stop offset="0.641" stop-color="#35b3a8"/>
      <stop offset="0.928" stop-color="#0c939e"/>
      <stop offset="1" stop-color="#008a9b"/>
    </linearGradient>
    <linearGradient id="linear-gradient-2" x1="0.334" y1="0.5" x2="10.075" y2="0.5" xlink:href="#linear-gradient"/>
    <linearGradient id="linear-gradient-3" x1="-0.109" y1="0.5" x2="1.032" y2="0.5" xlink:href="#linear-gradient"/>
    <linearGradient id="linear-gradient-4" x1="-14.58" y1="0.499" x2="1.148" y2="0.499" xlink:href="#linear-gradient"/>
    <linearGradient id="linear-gradient-5" x1="-1.073" y1="0.5" x2="8.668" y2="0.5" xlink:href="#linear-gradient"/>
    <linearGradient id="linear-gradient-6" x1="-0.087" y1="-0.102" x2="0.848" y2="0.873" gradientUnits="objectBoundingBox">
      <stop offset="0" stop-color="#149aa0"/>
      <stop offset="1" stop-color="#57ceaf"/>
    </linearGradient>
  </defs>
  <g id="ionichub_logo" data-name="ionichub logo" transform="translate(-229 -221.771)">
    <g id="OBJECTS" transform="translate(229.01 221.781)">
      <g id="Group_6" data-name="Group 6" transform="translate(-0.01 -0.01)">
        <g id="Group_5" data-name="Group 5">
          <g id="Group_3" data-name="Group 3">
            <g id="Group_1" data-name="Group 1">
              <path id="Path_1" data-name="Path 1" d="M43.25,9.255A9.255,9.255,0,1,1,33.995,0,9.253,9.253,0,0,1,43.25,9.255Z" transform="translate(24.309 0.02)" fill="url(#linear-gradient)"/>
              <path id="Path_2" data-name="Path 2" d="M29.875,27.695c0,5.093-4.618,9.255-10.286,9.255H10.276C4.627,36.95-.01,32.788-.01,27.695S4.608,18.44,10.276,18.44H19.59C25.238,18.44,29.875,22.6,29.875,27.695Z" transform="translate(0.01 18.124)" fill="url(#linear-gradient-2)"/>
              <path id="Path_3" data-name="Path 3" d="M255.835,74.01H235.66c-5.945,0-10.8-4.162-10.8-9.255s4.855-9.255,10.8-9.255h5.926c5.945,0,10.8-4.162,10.8-9.255s-4.855-9.255-10.8-9.255H213.524c-5.945,0-10.8-4.162-10.8-9.255,0-5.034,4.756-9.156,10.622-9.235h10.186c5.945,0,10.8-4.162,10.8-9.255S229.477-.01,223.532-.01H65.543c-5.945,0-10.8,4.162-10.8,9.255S59.6,18.5,65.543,18.5h6c5.886.059,10.682,4.2,10.682,9.255,0,5.093-4.855,9.255-10.8,9.255H29.911c-5.945,0-10.8,4.162-10.8,9.255s4.855,9.255,10.8,9.255H58.885c5.945,0,10.8,4.162,10.8,9.255s-4.855,9.255-10.8,9.255H51.79c-5.945,0-10.8,4.162-10.8,9.255s4.855,9.255,10.8,9.255H78.068c5.945,0,10.8,4.162,10.8,9.255,0,5.034-4.756,9.156-10.622,9.235H69.864c-5.945,0-10.8,4.162-10.8,9.255s4.855,9.255,10.8,9.255H227.852c5.945,0,10.8-4.162,10.8-9.255s-4.855-9.255-10.8-9.255h-5.272c-5.886-.059-10.682-4.2-10.682-9.255,0-5.093,4.855-9.255,10.8-9.255h33.116c5.945,0,10.8-4.162,10.8-9.255C266.636,78.172,261.761,74.01,255.835,74.01Z" transform="translate(18.782 0.01)" fill="url(#linear-gradient-3)"/>
            </g>
            <g id="Group_2" data-name="Group 2" transform="translate(42.054 37.079)">
              <path id="Path_4" data-name="Path 4" d="M158.74,27.955a9.255,9.255,0,1,1-9.255-9.255A9.253,9.253,0,0,1,158.74,27.955Z" transform="translate(95.643 -18.7)" fill="url(#linear-gradient-4)"/>
              <path id="Path_5" data-name="Path 5" d="M51.1,65.325c0,5.093-4.618,9.255-10.286,9.255H31.5c-5.648,0-10.286-4.162-10.286-9.255S25.828,56.07,31.5,56.07H40.81C46.478,56.07,51.1,60.232,51.1,65.325Z" transform="translate(-21.21 17.99)" fill="url(#linear-gradient-5)"/>
            </g>
          </g>
          <g id="Group_4" data-name="Group 4" transform="translate(121.405 21.602)">
            <path id="Path_6" data-name="Path 6" d="M74.627,54.39c3.726,1.209,5.49,3.726,5.49,9.473V81.521c0,4.459,2.22,7.055,6.877,7.055h1.962v9.295H84.3c-10.5,0-15.795-5.291-15.795-15.141V63.586c0-3.072-1.566-4.459-4.182-4.459H61.25V49.654h3.072c2.6,0,4.182-1.387,4.182-4.459V26.051C68.5,16.2,73.815,10.89,84.3,10.89h4.657v9.295H86.993c-4.657,0-6.877,2.6-6.877,7.055V44.9C80.117,50.665,78.353,53.181,74.627,54.39Z" transform="translate(-61.25 -10.89)" fill="#fff"/>
            <path id="Path_7" data-name="Path 7" d="M117.565,49.634v9.473h-3.171c-2.517,0-4.083,1.387-4.083,4.459V82.71c0,9.85-5.39,15.141-15.894,15.141H89.76V88.556H91.7c4.736,0,6.976-2.6,6.976-7.055V63.844c0-5.767,1.685-8.264,5.39-9.473-3.726-1.209-5.39-3.726-5.39-9.473V27.24c0-4.459-2.22-7.055-6.976-7.055H89.76V10.89h4.657c10.5,0,15.894,5.291,15.894,15.161V45.195c0,3.072,1.585,4.459,4.083,4.459h3.171Z" transform="translate(-33.259 -10.89)" fill="#fff"/>
          </g>
        </g>
      </g>
    </g>
    <path id="Path_8" data-name="Path 8" d="M2.85,0h11.8V-21.011l-11.8-7.85ZM41.2.8C52.6.8,60.95-6.9,60.95-17.5S52.6-35.8,41.2-35.8,21.45-28.1,21.45-17.5,29.8.8,41.2.8Zm0-9.55c-4.35,0-7.85-3.3-7.85-8.75s3.5-8.75,7.85-8.75,7.85,3.3,7.85,8.75S45.55-8.75,41.2-8.75ZM90.75-35v15.9L77.45-35h-9.7V0h11.5V-15.9L92.55,0h9.7V-35Zm19.7,35h11.8V-35h-11.8Zm38.1.8c6.85,0,12.25-2.5,15.7-7l-7.45-6.65c-2.05,2.6-4.5,4.1-7.65,4.1-4.9,0-8.2-3.4-8.2-8.75s3.3-8.75,8.2-8.75c3.15,0,5.6,1.5,7.65,4.1l7.45-6.65c-3.45-4.5-8.85-7-15.7-7-11.25,0-19.5,7.55-19.5,18.3S137.3.8,148.55.8ZM192.85-35v12.4h-10.9V-35h-11.8V0h11.8V-12.9h10.9V0h11.8V-35ZM229.6.8c10.75,0,17.05-6.05,17.05-16.55V-35h-11.6v18.9c0,5.35-2.05,7.35-5.35,7.35s-5.35-2-5.35-7.35V-35h-11.8v19.25C212.55-5.25,218.85.8,229.6.8Zm52.95-19.1a8.156,8.156,0,0,0,4.85-7.55c0-5.3-4.5-9.15-14.15-9.15h-18.7V0h19.7c9.65,0,14.8-3.55,14.8-9.65C289.05-13.8,286.65-16.8,282.55-18.3Zm-10.9-8.45c2.65,0,3.85.9,3.85,2.6s-1.2,2.6-3.85,2.6h-5.5v-5.2Zm1.6,18.5h-7.1v-5.5h7.1c2.6,0,3.9.95,3.9,2.75S275.85-8.25,273.25-8.25Z" transform="translate(241.15 402)" fill="#101722"/>
    <path id="Path_10" data-name="Path 10" d="M15.984-11.2,12.9-2.048,9.808-11.2H8.336L5.184-2.1,2.16-11.2H.512L4.256,0H5.968L9.024-8.944,12.08,0h1.68L17.5-11.2Zm7.472,9.808V-5.008h5.616v-1.36H23.456v-3.44h6.3V-11.2h-7.9V0h8.128V-1.392ZM42.512-5.808a2.654,2.654,0,0,0,1.5-2.5c0-1.808-1.44-2.9-4.016-2.9H34.976V0H40.32c2.832,0,4.288-1.1,4.288-3.024A2.707,2.707,0,0,0,42.512-5.808ZM39.856-9.9c1.632,0,2.56.608,2.56,1.792s-.928,1.792-2.56,1.792h-3.28V-9.9Zm.4,8.608h-3.68V-5.024h3.68c1.776,0,2.736.576,2.736,1.872S42.032-1.3,40.256-1.3ZM56.192,0h4.72c3.6,0,6.048-2.272,6.048-5.6s-2.448-5.6-6.048-5.6h-4.72Zm1.6-1.392V-9.808h3.024c2.768,0,4.544,1.7,4.544,4.208s-1.776,4.208-4.544,4.208Zm15.616,0V-5.008h5.616v-1.36H73.408v-3.44h6.3V-11.2h-7.9V0h8.128V-1.392ZM92.9-11.2,88.832-2,84.8-11.2H83.072L88,0h1.584L94.5-11.2ZM99.92-1.392V-5.008h5.616v-1.36H99.92v-3.44h6.3V-11.2h-7.9V0h8.128V-1.392ZM111.44,0H119.1V-1.392H113.04V-11.2h-1.6Zm16.752.128A5.675,5.675,0,0,0,134.128-5.6a5.675,5.675,0,0,0-5.936-5.728A5.693,5.693,0,0,0,122.224-5.6,5.693,5.693,0,0,0,128.192.128Zm0-1.424a4.213,4.213,0,0,1-4.368-4.3,4.213,4.213,0,0,1,4.368-4.3,4.205,4.205,0,0,1,4.336,4.3A4.205,4.205,0,0,1,128.192-1.3Zm15.152-9.9h-4.368V0h1.6V-3.392h2.768c2.912,0,4.672-1.472,4.672-3.9S146.256-11.2,143.344-11.2ZM143.3-4.784h-2.72V-9.808h2.72c2.048,0,3.12.912,3.12,2.512S145.344-4.784,143.3-4.784ZM152.768,0h1.6V-11.2h-1.6ZM168.16-11.2v8.352L161.44-11.2h-1.312V0h1.6V-8.352L168.448,0h1.312V-11.2Zm15.12,9.184a4.74,4.74,0,0,1-2.624.72,4.252,4.252,0,0,1-4.448-4.3,4.238,4.238,0,0,1,4.464-4.3,4.44,4.44,0,0,1,3.248,1.3l.992-.992a5.614,5.614,0,0,0-4.3-1.728,5.683,5.683,0,0,0-6,5.728A5.674,5.674,0,0,0,180.576.128a6.619,6.619,0,0,0,4.24-1.424V-5.664H183.28ZM205.344,0h1.68l-5.088-11.2h-1.584L195.28,0h1.648l1.232-2.8h5.952ZM198.72-4.08l2.416-5.488,2.416,5.488Zm19.968,2.064a4.74,4.74,0,0,1-2.624.72,4.252,4.252,0,0,1-4.448-4.3,4.238,4.238,0,0,1,4.464-4.3,4.44,4.44,0,0,1,3.248,1.3l.992-.992a5.614,5.614,0,0,0-4.3-1.728,5.683,5.683,0,0,0-6,5.728A5.674,5.674,0,0,0,215.984.128a6.619,6.619,0,0,0,4.24-1.424V-5.664h-1.536Zm8.592.624V-5.008H232.9v-1.36H227.28v-3.44h6.3V-11.2h-7.9V0h8.128V-1.392ZM246.832-11.2v8.352l-6.72-8.352H238.8V0h1.6V-8.352L247.12,0h1.312V-11.2ZM259.2.128a5.557,5.557,0,0,0,4.272-1.76l-1.04-1.008A4.165,4.165,0,0,1,259.28-1.3a4.23,4.23,0,0,1-4.4-4.3,4.23,4.23,0,0,1,4.4-4.3,4.15,4.15,0,0,1,3.152,1.328l1.04-1.008a5.534,5.534,0,0,0-4.256-1.744A5.665,5.665,0,0,0,253.28-5.6,5.661,5.661,0,0,0,259.2.128ZM276.7-11.2H275.12l-3.6,5.9-3.584-5.9h-1.712l4.448,7.3V0h1.584V-3.872Z" transform="translate(246 429)" fill="#bcbcbc"/>
    <path id="Path_9" data-name="Path 9" d="M243.85,371.41l11.859,8.059V367.377H243.85Z" fill="url(#linear-gradient-6)"/>
  </g>
</svg>
