<svg xmlns="http://www.w3.org/2000/svg" width="29.293" height="23.684" viewBox="0 0 29.293 23.684">
  <g id="theme-1-logo-dark" transform="translate(-181.754 -80.749)">
    <path id="Path_2" data-name="Path 2" d="M.8-9.8H4.1V0H.8ZM10.766.224a5.955,5.955,0,0,1-2.8-.651,4.867,4.867,0,0,1-1.953-1.82A5.025,5.025,0,0,1,5.306-4.9a5.025,5.025,0,0,1,.707-2.653,4.867,4.867,0,0,1,1.953-1.82,5.955,5.955,0,0,1,2.8-.651,6.147,6.147,0,0,1,2.548.5,4.729,4.729,0,0,1,1.848,1.456L13.076-6.2a2.676,2.676,0,0,0-2.142-1.15,2.188,2.188,0,0,0-1.666.665A2.489,2.489,0,0,0,8.638-4.9a2.489,2.489,0,0,0,.63,1.785,2.188,2.188,0,0,0,1.666.665A2.676,2.676,0,0,0,13.076-3.6l2.086,1.862A4.729,4.729,0,0,1,13.314-.28a6.147,6.147,0,0,1-2.548.5Z" transform="translate(189 98)" fill="#12151c"/>
    <path id="Path_1" data-name="Path 1" d="M210.427,93V81.309H182.634v22.184h27.794" transform="translate(-0.13 0.19)" fill="none" stroke="#12151c" stroke-linejoin="round" stroke-width="1.5"/>
  </g>
</svg>
